<svg width="29" height="30" viewBox="0 0 29 30" fill="none" xmlns="http://www.w3.org/2000/svg">
<g id="fontisto:world-o" clip-path="url(#clip0_3_34)">
<path id="Vector" d="M29 14.9998V14.9925C29 10.7017 27.1319 6.84835 24.1655 4.19847L24.151 4.18639C24.1143 4.14692 24.0734 4.11166 24.0289 4.08126L24.0265 4.08005C21.3917 1.76703 18.0036 0.494472 14.4976 0.500971C10.8339 0.500971 7.48925 1.86155 4.93967 4.10664L4.95538 4.09335C4.92474 4.11677 4.89642 4.14307 4.8708 4.17189C3.33812 5.52913 2.1113 7.19773 1.27159 9.06483C0.43188 10.9319 -0.00155076 12.9561 4.16891e-06 15.0034C4.16891e-06 19.293 1.86567 23.1463 4.82971 25.7974L4.84421 25.8095C4.88277 25.8529 4.92569 25.8921 4.9723 25.9267L4.97471 25.9279C7.60868 28.2378 10.9942 29.5085 14.4976 29.5022C18.0173 29.5076 21.4174 28.2251 24.0567 25.8965L24.041 25.9098C25.6003 24.5541 26.8502 22.8793 27.7062 20.9987C28.5622 19.1182 29.0042 17.0757 29.0024 15.0094V15.001L29 14.9998ZM23.6084 24.4308C22.8899 23.8502 22.1174 23.3395 21.3017 22.9059L21.2232 22.8672C21.9639 20.7321 22.4098 18.2707 22.452 15.7103V15.6909H27.6008C27.4276 19.0036 26.0017 22.1265 23.612 24.4272L23.6084 24.4308ZM15.1912 22.6123C16.7415 22.6956 18.1903 23.0364 19.5267 23.591L19.4397 23.5596C18.3691 26.0004 16.8623 27.6776 15.1912 28.0461V22.6123ZM15.1912 21.2299V15.6909H21.0733C21.0265 17.9846 20.6288 20.2577 19.894 22.431L19.9411 22.2727C18.4412 21.6553 16.8455 21.3028 15.225 21.2311L15.1924 21.2299H15.1912ZM15.1912 14.3086V8.7696C16.8553 8.69389 18.4936 8.3296 20.033 7.69297L19.9375 7.72801C20.6081 9.6843 21.0202 11.9391 21.0733 14.2832V14.3086H15.1912ZM15.1912 7.38726V1.9558C16.8623 2.32435 18.3691 3.99426 19.4397 6.44235C18.1903 6.96193 16.7415 7.30147 15.2262 7.38605L15.1912 7.38726ZM18.6398 2.55393C20.064 3.02794 21.3958 3.74411 22.5765 4.67093L22.5487 4.64918C22.0134 5.06968 21.4129 5.46601 20.7797 5.81039L20.712 5.84422C20.2017 4.63607 19.4981 3.51906 18.6289 2.53701L18.6398 2.5503V2.55393ZM13.8064 1.95943V7.38726C12.3159 7.31132 10.8495 6.98027 9.47092 6.40851L9.55792 6.43993C10.6333 3.9991 12.1377 2.32314 13.8088 1.9546L13.8064 1.95943ZM8.28675 5.8406C7.63192 5.48791 7.00784 5.08089 6.42109 4.6238L6.45009 4.64555C7.59639 3.74589 8.88655 3.04648 10.266 2.57689L10.3578 2.5491C9.51218 3.50517 8.82335 4.58919 8.31696 5.76085L8.28675 5.8406ZM13.8088 8.76839V14.3074H7.92667C7.97984 11.9378 8.39188 9.6831 9.10963 7.56851L9.0625 7.7268C10.5625 8.34126 12.157 8.69318 13.7762 8.76718L13.8088 8.76839ZM13.8088 15.6897V21.2287C12.1447 21.3044 10.5064 21.6687 8.96704 22.3053L9.0625 22.2703C8.39188 20.3152 7.97984 18.0593 7.92667 15.7151V15.6897H13.8088ZM13.8088 22.6111V28.0425C12.1377 27.674 10.6309 26.0041 9.56034 23.556C10.8098 23.0364 12.2585 22.6981 13.7738 22.6135L13.8088 22.6111ZM10.3651 27.4444C8.94213 26.9697 7.61073 26.2553 6.42834 25.3322L6.45734 25.354C6.99263 24.9335 7.59317 24.5371 8.22634 24.1928L8.294 24.1589C8.80051 25.3673 9.50406 26.4833 10.376 27.4613L10.3651 27.4492V27.4444ZM20.7133 24.1577C21.4141 24.5383 22.0146 24.9335 22.5789 25.3745L22.5499 25.3528C21.4036 26.2524 20.1135 26.9518 18.734 27.4214L18.6422 27.4492C19.4877 26.4935 20.1765 25.4099 20.683 24.2387L20.7133 24.1601V24.1577ZM27.6008 14.3086H22.452C22.4143 11.8086 21.9828 9.3301 21.1736 6.96435L21.2232 7.1311C22.0767 6.68156 22.8848 6.15065 23.6362 5.54576L23.6072 5.56751C25.9929 7.85883 27.4194 10.9706 27.5983 14.2736L27.6008 14.3086ZM5.39159 5.56872C6.08759 6.13422 6.86938 6.6526 7.6983 7.09364L7.77684 7.1323C7.03613 9.26743 6.59025 11.7288 6.54796 14.2893V14.3086H1.39805C1.5712 10.996 2.99705 7.87298 5.38675 5.57235L5.39159 5.56872ZM1.39925 15.6909H6.54796C6.58575 18.191 7.01718 20.6694 7.82638 23.0352L7.77684 22.8684C6.86938 23.3506 6.0888 23.8689 5.3638 24.4538L5.3928 24.432C3.00713 22.1407 1.5806 19.0289 1.40167 15.726L1.40046 15.6921L1.39925 15.6909Z" fill="white"/>
</g>
<defs>
<clipPath id="clip0_3_34">
<rect width="29" height="29" fill="white" transform="translate(0 0.5)"/>
</clipPath>
</defs>
</svg>
