<svg width="62" height="42" viewBox="0 0 62 42" fill="none" xmlns="http://www.w3.org/2000/svg">
<g filter="url(#filter0_d_149_225)">
<path d="M44.3334 6.52734H36.3334C34.8667 6.52734 33.6667 7.73989 33.6667 9.22188C33.6667 10.7039 34.8667 11.9164 36.3334 11.9164H44.3334C48.7334 11.9164 52.3334 15.5541 52.3334 20C52.3334 24.446 48.7334 28.0837 44.3334 28.0837H36.3334C34.8667 28.0837 33.6667 29.2962 33.6667 30.7782C33.6667 32.2602 34.8667 33.4728 36.3334 33.4728H44.3334C51.6934 33.4728 57.6667 27.437 57.6667 20C57.6667 12.5631 51.6934 6.52734 44.3334 6.52734ZM20.3334 20C20.3334 21.482 21.5334 22.6946 23 22.6946H39C40.4667 22.6946 41.6667 21.482 41.6667 20C41.6667 18.5181 40.4667 17.3055 39 17.3055H23C21.5334 17.3055 20.3334 18.5181 20.3334 20ZM25.6667 28.0837H17.6667C13.2667 28.0837 9.66671 24.446 9.66671 20C9.66671 15.5541 13.2667 11.9164 17.6667 11.9164H25.6667C27.1334 11.9164 28.3334 10.7039 28.3334 9.22188C28.3334 7.73989 27.1334 6.52734 25.6667 6.52734H17.6667C10.3067 6.52734 4.33337 12.5631 4.33337 20C4.33337 27.437 10.3067 33.4728 17.6667 33.4728H25.6667C27.1334 33.4728 28.3334 32.2602 28.3334 30.7782C28.3334 29.2962 27.1334 28.0837 25.6667 28.0837Z" fill="white"/>
</g>
<defs>
<filter id="filter0_d_149_225" x="0" y="0" width="64" height="48" filterUnits="userSpaceOnUse" color-interpolation-filters="sRGB">
<feFlood flood-opacity="0" result="BackgroundImageFix"/>
<feColorMatrix in="SourceAlpha" type="matrix" values="0 0 0 0 0 0 0 0 0 0 0 0 0 0 0 0 0 0 127 0" result="hardAlpha"/>
<feOffset dy="4"/>
<feGaussianBlur stdDeviation="2"/>
<feComposite in2="hardAlpha" operator="out"/>
<feColorMatrix type="matrix" values="0 0 0 0 0 0 0 0 0 0 0 0 0 0 0 0 0 0 0.25 0"/>
<feBlend mode="normal" in2="BackgroundImageFix" result="effect1_dropShadow_149_225"/>
<feBlend mode="normal" in="SourceGraphic" in2="effect1_dropShadow_149_225" result="shape"/>
</filter>
</defs>
</svg>
