<svg width="64" height="64" viewBox="0 0 64 64" fill="none" xmlns="http://www.w3.org/2000/svg">
<g clip-path="url(#clip0_149_217)" filter="url(#filter0_d_149_217)">
<path d="M32 0.456055C16.7901 0.456055 4.3457 12.8728 4.3457 28.1657C4.3457 41.9928 14.4672 53.4694 27.6859 55.5435V36.1854H20.6618V28.1657H27.6859V22.0541C27.6859 15.1128 31.8064 11.2965 38.1393 11.2965C41.1536 11.2965 44.3062 11.822 44.3062 11.822V18.6526H40.8218C37.3926 18.6526 36.3141 20.782 36.3141 22.9667V28.1657H44.002L42.7576 36.1854H36.3141V55.5435C42.8307 54.5143 48.7646 51.1893 53.0448 46.1688C57.3249 41.1483 59.6691 34.763 59.6543 28.1657C59.6543 12.8728 47.2099 0.456055 32 0.456055Z" fill="white"/>
</g>
<defs>
<filter id="filter0_d_149_217" x="0" y="0" width="64" height="64" filterUnits="userSpaceOnUse" color-interpolation-filters="sRGB">
<feFlood flood-opacity="0" result="BackgroundImageFix"/>
<feColorMatrix in="SourceAlpha" type="matrix" values="0 0 0 0 0 0 0 0 0 0 0 0 0 0 0 0 0 0 127 0" result="hardAlpha"/>
<feOffset dy="4"/>
<feGaussianBlur stdDeviation="2"/>
<feComposite in2="hardAlpha" operator="out"/>
<feColorMatrix type="matrix" values="0 0 0 0 0 0 0 0 0 0 0 0 0 0 0 0 0 0 0.25 0"/>
<feBlend mode="normal" in2="BackgroundImageFix" result="effect1_dropShadow_149_217"/>
<feBlend mode="normal" in="SourceGraphic" in2="effect1_dropShadow_149_217" result="shape"/>
</filter>
<clipPath id="clip0_149_217">
<rect width="56" height="56" fill="white" transform="translate(4)"/>
</clipPath>
</defs>
</svg>
